<?xml version="1.0" standalone="no"?>
<!DOCTYPE svg PUBLIC "-//W3C//DTD SVG 20010904//EN"
 "http://www.w3.org/TR/2001/REC-SVG-20010904/DTD/svg10.dtd">
<svg version="1.0" xmlns="http://www.w3.org/2000/svg"
 width="500.000000pt" height="500.000000pt" viewBox="0 0 500.000000 500.000000"
 preserveAspectRatio="xMidYMid meet">

<g transform="translate(0.000000,500.000000) scale(0.100000,-0.100000)"
fill="#000000" stroke="none">
<path d="M1420 2867 c0 -8 9 -17 20 -20 19 -5 20 -14 20 -172 0 -158 -1 -167
-20 -172 -11 -3 -20 -12 -20 -19 0 -11 19 -14 85 -14 69 0 85 3 85 15 0 9 -9
15 -25 15 -33 0 -47 29 -43 93 3 51 4 52 36 55 45 5 65 -16 87 -88 10 -33 26
-67 36 -75 23 -22 75 -22 99 0 24 21 27 65 5 65 -8 0 -15 -6 -15 -14 0 -7 -6
-19 -14 -25 -18 -15 -28 -1 -50 66 -10 29 -27 59 -38 67 -20 14 -19 15 11 31
18 9 39 31 48 50 14 29 14 41 4 75 -19 64 -45 74 -188 79 -104 3 -123 1 -123
-12z m232 -47 c25 -31 24 -94 -2 -120 -15 -15 -33 -20 -75 -20 l-55 0 0 86 0
86 57 -4 c43 -4 61 -10 75 -28z"/>
<path d="M1910 2866 c0 -7 9 -16 20 -19 19 -5 20 -14 20 -172 0 -158 -1 -167
-20 -172 -11 -3 -20 -12 -20 -19 0 -11 30 -14 154 -14 l154 0 6 31 c10 52 7
69 -12 69 -11 0 -25 -14 -35 -35 l-17 -35 -75 0 -75 0 0 80 0 80 49 0 c41 0
51 -4 56 -20 3 -11 13 -20 21 -20 10 0 14 14 14 55 0 41 -4 55 -14 55 -8 0
-18 -9 -21 -20 -5 -16 -15 -20 -56 -20 l-50 0 3 78 3 77 70 0 70 0 10 -32 c6
-22 15 -33 27 -33 15 0 18 9 18 50 l0 50 -150 0 c-121 0 -150 -3 -150 -14z"/>
<path d="M2360 2868 c0 -7 10 -18 23 -23 21 -10 22 -14 22 -170 0 -156 -1
-160 -22 -170 -13 -5 -23 -15 -23 -22 0 -16 197 -18 252 -3 50 14 78 52 78
105 0 36 -5 48 -31 69 -17 14 -35 26 -41 26 -6 0 1 11 15 24 50 46 47 110 -6
150 -24 18 -46 22 -148 25 -96 2 -119 0 -119 -11z m214 -39 c20 -16 26 -29 26
-59 0 -46 -21 -64 -87 -75 l-43 -7 0 81 0 81 39 0 c24 0 48 -8 65 -21z m5
-174 c33 -16 41 -33 41 -79 0 -46 -29 -68 -95 -74 l-55 -4 0 86 0 86 40 0 c23
0 54 -7 69 -15z"/>
<path d="M2820 2867 c0 -7 10 -17 23 -22 21 -10 22 -14 22 -170 0 -156 -1
-160 -22 -170 -13 -5 -23 -15 -23 -22 0 -10 37 -13 154 -13 170 0 166 -1 166
66 0 45 -29 46 -50 1 -15 -31 -17 -32 -87 -35 l-73 -3 0 81 0 80 46 0 c38 0
47 -4 51 -20 3 -13 12 -20 22 -18 12 3 16 15 16 53 0 38 -4 50 -16 53 -10 2
-19 -5 -22 -18 -4 -16 -13 -20 -51 -20 l-46 0 0 80 0 80 64 0 c65 0 81 -8 88
-45 2 -12 13 -21 27 -23 21 -3 23 -1 18 20 -4 12 -7 35 -7 51 l0 27 -150 0
c-114 0 -150 -3 -150 -13z"/>
<path d="M3270 2866 c0 -8 10 -16 23 -18 22 -3 22 -4 22 -173 0 -169 0 -170
-22 -173 -13 -2 -23 -10 -23 -18 0 -11 26 -14 144 -14 80 0 147 3 149 8 3 4 8
28 12 55 7 43 6 47 -14 47 -12 0 -21 -6 -21 -15 0 -9 -11 -27 -25 -40 -20 -21
-34 -25 -80 -25 l-55 0 2 173 c3 170 3 172 26 175 12 2 22 10 22 18 0 11 -17
14 -80 14 -63 0 -80 -3 -80 -14z"/>
<path d="M1845 2206 c-17 -7 -36 -25 -43 -40 -15 -33 -16 -180 -2 -207 17 -32
68 -52 118 -46 63 7 85 32 90 107 l4 60 -56 0 c-53 0 -56 -1 -56 -25 0 -20 5
-25 25 -25 19 0 25 -5 25 -23 0 -30 -18 -47 -50 -47 -42 0 -50 17 -50 106 0
91 9 108 57 102 17 -2 32 -11 38 -25 12 -27 65 -33 65 -8 0 27 -30 63 -62 74
-40 14 -66 13 -103 -3z"/>
<path d="M2140 2065 l0 -155 25 0 25 0 0 155 0 155 -25 0 -25 0 0 -155z"/>
<path d="M2330 2066 l0 -156 30 0 30 0 0 65 c0 62 1 65 23 65 20 0 29 -11 52
-65 25 -59 30 -65 56 -65 16 0 29 2 29 5 0 3 -13 32 -30 65 l-30 59 26 18 c38
28 44 90 12 128 -23 26 -31 29 -111 33 l-87 5 0 -157z m141 94 c11 -6 19 -21
19 -35 0 -28 -26 -45 -69 -45 -30 0 -31 1 -31 45 0 44 1 45 31 45 17 0 39 -5
50 -10z"/>
<path d="M2680 2065 l0 -156 103 3 c97 3 102 4 105 25 3 21 -1 22 -75 25 l-78
3 -3 128 -3 127 -24 0 -25 0 0 -155z"/>
<path d="M3044 2206 c-34 -15 -44 -33 -44 -75 0 -40 17 -57 93 -90 66 -30 79
-45 55 -69 -25 -25 -98 -7 -98 23 0 10 -10 15 -30 15 -35 0 -34 0 -16 -44 17
-41 61 -60 122 -53 50 5 79 26 88 63 12 45 -13 76 -84 105 -73 31 -91 49 -71
73 21 25 66 20 89 -9 26 -33 62 -34 62 -2 0 57 -98 94 -166 63z"/>
</g>
</svg>
